<svg xmlns="http://www.w3.org/2000/svg" width="75" height="72" fill="none"><g fill="#83B3D3"><path d="M30 65h16V41H30v24Zm3-21h10v18H33V44Z"/><path d="m73 39 2-2-10-10V0H51v14L37 0 0 37l2 2 8-7v37H6v3h64v-3h-5V32l8 7ZM62 69H13V29L37 4l25 25v40Zm0-45-8-7V3h8v21Z"/><path d="M30 27c0 4 3 8 8 8 4 0 7-4 7-8s-3-8-7-8c-5 0-8 4-8 8Zm8-5c2 0 5 2 5 5s-3 5-5 5c-3 0-5-2-5-5s2-5 5-5ZM20 41h-3v4h3v-4ZM26 41h-3v4h3v-4ZM20 47h-3v4h3v-4ZM26 47h-3v4h3v-4ZM52 41h-3v4h3v-4ZM58 41h-3v4h3v-4ZM52 47h-3v4h3v-4ZM58 47h-3v4h3v-4Z"/></g></svg>